<svg width="4" height="13" viewBox="0 0 4 13" fill="none" xmlns="http://www.w3.org/2000/svg">
<path fill-rule="evenodd" clip-rule="evenodd" d="M0.333344 1.55555C0.333344 0.788483 0.95517 0.166656 1.72223 0.166656C2.48929 0.166656 3.11112 0.788483 3.11112 1.55555C3.11112 2.32261 2.48929 2.94443 1.72223 2.94443C0.95517 2.94443 0.333344 2.32261 0.333344 1.55555ZM0.611053 6.00002C0.611053 5.23296 1.23288 4.61114 1.99994 4.61114C2.767 4.61114 3.38883 5.23296 3.38883 6.00002C3.38883 6.76709 2.767 7.38891 1.99994 7.38891C1.23288 7.38891 0.611053 6.76709 0.611053 6.00002ZM1.99994 9.47218C1.23288 9.47218 0.611053 10.094 0.611053 10.8611C0.611053 11.6281 1.23288 12.25 1.99994 12.25C2.767 12.25 3.38883 11.6281 3.38883 10.8611C3.38883 10.094 2.767 9.47218 1.99994 9.47218Z" fill="#1D2433" fill-opacity="0.8"/>
</svg>
