<svg width="12" height="12" viewBox="0 0 12 12" fill="none" xmlns="http://www.w3.org/2000/svg">
<path fill-rule="evenodd" clip-rule="evenodd" d="M10.419 6.44191C10.6631 6.68599 11.0588 6.68599 11.3029 6.44191C11.547 6.19783 11.547 5.8021 11.3029 5.55802L6.44469 0.699817C6.4351 0.690107 6.42521 0.680711 6.41501 0.671642C6.30462 0.573483 6.1592 0.513855 5.99986 0.513855C5.91849 0.513855 5.84074 0.529409 5.76944 0.557703C5.69241 0.588199 5.62021 0.634603 5.5579 0.696914L0.696791 5.55803C0.452714 5.8021 0.452714 6.19783 0.696791 6.44191C0.940869 6.68599 1.3366 6.68599 1.58067 6.44191L5.37486 2.64772L5.37486 10.8611C5.37486 11.2063 5.65469 11.4861 5.99986 11.4861C6.34504 11.4861 6.62486 11.2063 6.62486 10.8611L6.62486 2.64776L10.419 6.44191Z" fill="#1D2433"/>
</svg>
