<svg width="16" height="14" viewBox="0 0 16 14" fill="none" xmlns="http://www.w3.org/2000/svg">
<path fill-rule="evenodd" clip-rule="evenodd" d="M0.488602 0.486952C0.591013 0.266224 0.812222 0.125 1.05555 0.125H14.9444C15.1878 0.125 15.409 0.266224 15.5114 0.486952C15.6138 0.70768 15.5788 0.96778 15.4217 1.15358L10.0139 7.54829V13.25C10.0139 13.4666 9.90173 13.6678 9.71747 13.7817C9.53321 13.8955 9.30312 13.9059 9.10938 13.809L6.3316 12.4201C6.11986 12.3143 5.98611 12.0978 5.98611 11.8611V7.54829L0.578319 1.15358C0.421196 0.96778 0.38619 0.70768 0.488602 0.486952ZM2.40262 1.375L7.08834 6.91587C7.18375 7.02869 7.23611 7.17168 7.23611 7.31944V11.4748L8.76388 12.2387V7.31944C8.76388 7.17168 8.81624 7.02869 8.91165 6.91587L13.5974 1.375H2.40262Z" fill="#1D2433" fill-opacity="0.75"/>
</svg>
