<svg width="18" height="15" viewBox="0 0 18 15" fill="none" xmlns="http://www.w3.org/2000/svg">
<path fill-rule="evenodd" clip-rule="evenodd" d="M9.40759 1.47709C8.5524 1.09938 7.62267 0.92059 6.68839 0.954188C5.7541 0.987787 4.83962 1.2329 4.01377 1.67106C3.18793 2.10923 2.47224 2.72904 1.9206 3.48382C1.36895 4.23861 0.995728 5.1087 0.829014 6.0286C0.662301 6.94851 0.706446 7.89424 0.958125 8.79461C1.2098 9.69498 1.66246 10.5265 2.28202 11.2266C2.51077 11.4851 2.90576 11.5093 3.16426 11.2805C3.42275 11.0518 3.44687 10.6568 3.21811 10.3983C2.72386 9.83974 2.36276 9.17638 2.16198 8.4581C1.9612 7.73983 1.92598 6.98536 2.05898 6.25151C2.19197 5.51766 2.48972 4.82354 2.92979 4.2214C3.36987 3.61927 3.94081 3.12482 4.59963 2.77527C5.25845 2.42572 5.98798 2.23018 6.73331 2.20338C7.47863 2.17658 8.22033 2.31921 8.90256 2.62053C9.58478 2.92185 10.1898 3.37402 10.672 3.94298C11.1541 4.51195 11.501 5.18289 11.6863 5.90529C11.7573 6.18169 12.0064 6.37495 12.2917 6.37495H13.1672C13.7724 6.37448 14.3621 6.56687 14.8505 6.92422C15.339 7.28156 15.7009 7.78526 15.8837 8.36222C16.0665 8.93917 16.0607 9.55937 15.8671 10.1328C15.6736 10.7062 15.3023 11.2031 14.8072 11.5512C14.5249 11.7498 14.4569 12.1396 14.6555 12.422C14.854 12.7043 15.2439 12.7723 15.5262 12.5737C16.2387 12.0727 16.7729 11.3578 17.0515 10.5326C17.33 9.70741 17.3384 8.81493 17.0753 7.98467C16.8123 7.15442 16.2915 6.42958 15.5886 5.91536C14.8858 5.40123 14.037 5.12438 13.1662 5.12495L12.7565 5.12495C12.7162 5.00743 12.6724 4.89125 12.6251 4.77657C12.3803 4.18216 12.0435 3.62793 11.6256 3.13481C11.0211 2.4216 10.2628 1.85481 9.40759 1.47709ZM9.00014 14.7083C8.65496 14.7083 8.37514 14.4285 8.37514 14.0833L8.37514 9.34228L6.66423 11.0532C6.42016 11.2973 6.02443 11.2973 5.78035 11.0532C5.53627 10.8091 5.53627 10.4134 5.78035 10.1693L8.55275 7.3969C8.66626 7.28057 8.82476 7.20833 9.00014 7.20833C9.17756 7.20833 9.33772 7.28226 9.45148 7.401L12.2198 10.1693C12.4639 10.4134 12.4639 10.8091 12.2198 11.0532C11.9757 11.2973 11.58 11.2973 11.3359 11.0532L9.62514 9.34242L9.62514 14.0833C9.62514 14.4285 9.34531 14.7083 9.00014 14.7083Z" fill="#1D2433" fill-opacity="0.75"/>
</svg>
